REM MD5 33541a84d139acdccdb248b09fbe5063
FILE "Fantastep (Japan).bin" BINARY
  TRACK 01 MODE2/2352
    INDEX 01 00:00:00
  TRACK 02 AUDIO
    INDEX 00 37:31:29
    INDEX 01 37:33:29
  TRACK 03 AUDIO
    INDEX 00 37:42:07
    INDEX 01 37:44:07
  TRACK 04 AUDIO
    INDEX 00 37:48:67
    INDEX 01 37:50:67
  TRACK 05 AUDIO
    INDEX 00 38:00:06
    INDEX 01 38:02:06
  TRACK 06 AUDIO
    INDEX 00 38:07:25
    INDEX 01 38:09:25
  TRACK 07 AUDIO
    INDEX 00 38:15:21
    INDEX 01 38:17:21
  TRACK 08 AUDIO
    INDEX 00 38:23:69
    INDEX 01 38:25:69
  TRACK 09 AUDIO
    INDEX 00 38:31:23
    INDEX 01 38:33:23
  TRACK 10 AUDIO
    INDEX 00 38:44:23
    INDEX 01 38:46:23
  TRACK 11 AUDIO
    INDEX 00 38:52:25
    INDEX 01 38:54:25
  TRACK 12 AUDIO
    INDEX 00 39:01:53
    INDEX 01 39:03:53
  TRACK 13 AUDIO
    INDEX 00 39:10:61
    INDEX 01 39:12:61
  TRACK 14 AUDIO
    INDEX 00 39:22:48
    INDEX 01 39:24:48
  TRACK 15 AUDIO
    INDEX 00 39:29:24
    INDEX 01 39:31:24
  TRACK 16 AUDIO
    INDEX 00 39:38:26
    INDEX 01 39:40:26
  TRACK 17 AUDIO
    INDEX 00 39:44:61
    INDEX 01 39:46:61
  TRACK 18 AUDIO
    INDEX 00 39:51:35
    INDEX 01 39:53:35
  TRACK 19 AUDIO
    INDEX 00 39:58:29
    INDEX 01 40:00:29
  TRACK 20 AUDIO
    INDEX 00 40:05:08
    INDEX 01 40:07:08
  TRACK 21 AUDIO
    INDEX 00 40:21:66
    INDEX 01 40:23:66
  TRACK 22 AUDIO
    INDEX 00 40:40:11
    INDEX 01 40:42:11
  TRACK 23 AUDIO
    INDEX 00 40:49:32
    INDEX 01 40:51:32
  TRACK 24 AUDIO
    INDEX 00 41:05:72
    INDEX 01 41:07:72
  TRACK 25 AUDIO
    INDEX 00 41:24:01
    INDEX 01 41:26:01
  TRACK 26 AUDIO
    INDEX 00 41:36:47
    INDEX 01 41:38:47
  TRACK 27 AUDIO
    INDEX 00 41:47:48
    INDEX 01 41:49:48
  TRACK 28 AUDIO
    INDEX 00 42:01:26
    INDEX 01 42:03:26
  TRACK 29 AUDIO
    INDEX 00 42:15:53
    INDEX 01 42:17:53
  TRACK 30 AUDIO
    INDEX 00 42:39:10
    INDEX 01 42:41:10
  TRACK 31 AUDIO
    INDEX 00 42:50:03
    INDEX 01 42:52:03
  TRACK 32 AUDIO
    INDEX 00 42:59:11
    INDEX 01 43:01:11
  TRACK 33 AUDIO
    INDEX 00 43:12:28
    INDEX 01 43:14:28
  TRACK 34 AUDIO
    INDEX 00 43:19:33
    INDEX 01 43:21:33
  TRACK 35 AUDIO
    INDEX 00 43:28:25
    INDEX 01 43:30:25
  TRACK 36 AUDIO
    INDEX 00 43:37:24
    INDEX 01 43:39:24
  TRACK 37 AUDIO
    INDEX 00 43:49:70
    INDEX 01 43:51:70
  TRACK 38 AUDIO
    INDEX 00 43:56:62
    INDEX 01 43:58:62
  TRACK 39 AUDIO
    INDEX 00 46:08:51
    INDEX 01 46:10:51
  TRACK 40 AUDIO
    INDEX 00 46:32:12
    INDEX 01 46:34:12
  TRACK 41 AUDIO
    INDEX 00 46:40:02
    INDEX 01 46:42:02
  TRACK 42 AUDIO
    INDEX 00 47:03:18
    INDEX 01 47:05:18
  TRACK 43 AUDIO
    INDEX 00 47:24:42
    INDEX 01 47:26:42
  TRACK 44 AUDIO
    INDEX 00 47:33:31
    INDEX 01 47:35:31
  TRACK 45 AUDIO
    INDEX 00 47:41:22
    INDEX 01 47:43:22
  TRACK 46 AUDIO
    INDEX 00 47:48:12
    INDEX 01 47:50:12
  TRACK 47 AUDIO
    INDEX 00 47:57:14
    INDEX 01 47:59:14
  TRACK 48 AUDIO
    INDEX 00 48:03:62
    INDEX 01 48:05:62
  TRACK 49 AUDIO
    INDEX 00 48:19:35
    INDEX 01 48:21:35
  TRACK 50 AUDIO
    INDEX 00 48:33:61
    INDEX 01 48:35:61
  TRACK 51 AUDIO
    INDEX 00 48:46:04
    INDEX 01 48:48:04
  TRACK 52 AUDIO
    INDEX 00 48:58:22
    INDEX 01 49:00:22
  TRACK 53 AUDIO
    INDEX 00 49:06:17
    INDEX 01 49:08:17
  TRACK 54 AUDIO
    INDEX 00 49:13:53
    INDEX 01 49:15:53
  TRACK 55 AUDIO
    INDEX 00 51:05:54
    INDEX 01 51:07:54
REM LEADOUT 55:24:64
